<?xml version="1.0" encoding="UTF-8"?>
<!DOCTYPE svg PUBLIC "-//W3C//DTD SVG 1.1//EN" "http://www.w3.org/Graphics/SVG/1.1/DTD/svg11.dtd">
<svg xmlns="http://www.w3.org/2000/svg" version="1.1" width="512px" height="512px" style="shape-rendering:geometricPrecision; text-rendering:geometricPrecision; image-rendering:optimizeQuality; fill-rule:evenodd; clip-rule:evenodd" xmlns:xlink="http://www.w3.org/1999/xlink">
<g><path style="opacity:0.996" fill="#fed402" d="M 232.5,-0.5 C 240.167,-0.5 247.833,-0.5 255.5,-0.5C 255.5,49.8333 255.5,100.167 255.5,150.5C 250.246,141.661 245.246,132.661 240.5,123.5C 235.418,113.002 230.085,102.669 224.5,92.5C 219.739,82.6419 214.739,72.9753 209.5,63.5C 199.975,45.7834 190.975,27.7834 182.5,9.5C 199.004,4.73259 215.67,1.39926 232.5,-0.5 Z"/></g>
<g><path style="opacity:0.997" fill="#febb02" d="M 255.5,-0.5 C 263.167,-0.5 270.833,-0.5 278.5,-0.5C 295.132,1.2931 311.465,4.62643 327.5,9.5C 317.659,27.8491 308.325,46.5157 299.5,65.5C 294.595,74.3084 289.928,83.3084 285.5,92.5C 280.501,102.495 275.501,112.495 270.5,122.5C 265.325,131.516 260.659,140.849 256.5,150.5C 256.167,150.5 255.833,150.5 255.5,150.5C 255.5,100.167 255.5,49.8333 255.5,-0.5 Z"/></g>
<g><path style="opacity:0.995" fill="#3d558f" d="M 327.5,9.5 C 404.413,33.2436 459.246,81.9102 492,155.5C 502.136,180.378 508.636,206.045 511.5,232.5C 511.5,247.833 511.5,263.167 511.5,278.5C 500.61,367.147 456.943,434.313 380.5,480C 348.466,497.292 314.466,507.792 278.5,511.5C 270.833,511.5 263.167,511.5 255.5,511.5C 255.5,491.5 255.5,471.5 255.5,451.5C 342.314,447.372 403.147,405.705 438,326.5C 463.542,253.711 452.209,187.377 404,127.5C 375.792,95.6466 340.958,74.9799 299.5,65.5C 308.325,46.5157 317.659,27.8491 327.5,9.5 Z"/></g>
<g><path style="opacity:0.994" fill="#59739e" d="M 182.5,9.5 C 190.975,27.7834 199.975,45.7834 209.5,63.5C 163.155,76.9371 125.322,102.937 96,141.5C 55.8627,201.07 48.8627,264.403 75,331.5C 102.642,392.137 148.809,430.637 213.5,447C 222.705,449.244 232.038,450.41 241.5,450.5C 245.97,451.486 250.637,451.819 255.5,451.5C 255.5,471.5 255.5,491.5 255.5,511.5C 247.833,511.5 240.167,511.5 232.5,511.5C 143.853,500.61 76.6868,456.943 31,380.5C 13.7076,348.465 3.20759,314.465 -0.5,278.5C -0.5,263.167 -0.5,247.833 -0.5,232.5C 9.30366,148.244 49.637,83.0776 120.5,37C 139.998,25.2219 160.665,16.0553 182.5,9.5 Z"/></g>
<g><path style="opacity:1" fill="#e9f4fe" d="M 209.5,63.5 C 214.739,72.9753 219.739,82.6419 224.5,92.5C 196.44,98.1179 171.44,109.951 149.5,128C 178.373,157.207 207.54,186.041 237,214.5C 237.873,214.265 238.707,213.931 239.5,213.5C 240.5,183.507 240.833,153.507 240.5,123.5C 245.246,132.661 250.246,141.661 255.5,150.5C 255.833,150.5 256.167,150.5 256.5,150.5C 255.508,180.426 255.175,210.426 255.5,240.5C 240.921,243.665 237.088,251.998 244,265.5C 247.065,268.949 250.898,270.616 255.5,270.5C 255.5,330.5 255.5,390.5 255.5,450.5C 250.833,450.5 246.167,450.5 241.5,450.5C 232.038,450.41 222.705,449.244 213.5,447C 148.809,430.637 102.642,392.137 75,331.5C 48.8627,264.403 55.8627,201.07 96,141.5C 125.322,102.937 163.155,76.9371 209.5,63.5 Z"/></g>
<g><path style="opacity:1" fill="#d4e9fe" d="M 299.5,65.5 C 340.958,74.9799 375.792,95.6466 404,127.5C 452.209,187.377 463.542,253.711 438,326.5C 403.147,405.705 342.314,447.372 255.5,451.5C 250.637,451.819 245.97,451.486 241.5,450.5C 246.167,450.5 250.833,450.5 255.5,450.5C 255.5,390.5 255.5,330.5 255.5,270.5C 266.898,268.733 271.731,262.066 270,250.5C 267.183,244.334 262.349,241.001 255.5,240.5C 255.175,210.426 255.508,180.426 256.5,150.5C 260.659,140.849 265.325,131.516 270.5,122.5C 270.5,152.833 270.5,183.167 270.5,213.5C 272.226,213.815 273.893,213.981 275.5,214C 304.014,185.653 332.347,157.153 360.5,128.5C 349.401,118.104 336.734,109.937 322.5,104C 310.497,99.083 298.164,95.2497 285.5,92.5C 289.928,83.3084 294.595,74.3084 299.5,65.5 Z"/></g>
<g><path style="opacity:1" fill="#29d9f6" d="M 224.5,92.5 C 230.085,102.669 235.418,113.002 240.5,123.5C 240.833,153.507 240.5,183.507 239.5,213.5C 238.707,213.931 237.873,214.265 237,214.5C 207.54,186.041 178.373,157.207 149.5,128C 171.44,109.951 196.44,98.1179 224.5,92.5 Z"/></g>
<g><path style="opacity:1" fill="#fe6666" d="M 285.5,92.5 C 298.164,95.2497 310.497,99.083 322.5,104C 336.734,109.937 349.401,118.104 360.5,128.5C 332.347,157.153 304.014,185.653 275.5,214C 273.893,213.981 272.226,213.815 270.5,213.5C 270.5,183.167 270.5,152.833 270.5,122.5C 275.501,112.495 280.501,102.495 285.5,92.5 Z"/></g>
<g><path style="opacity:1" fill="#fe9966" d="M 127.5,150.5 C 156.749,178.248 185.583,206.581 214,235.5C 213.981,237.107 213.815,238.774 213.5,240.5C 172.5,240.5 131.5,240.5 90.5,240.5C 93.499,206.522 105.832,176.522 127.5,150.5 Z"/></g>
<g><path style="opacity:1" fill="#02c77c" d="M 382.5,149.5 C 404.722,175.638 417.389,205.972 420.5,240.5C 379.5,240.5 338.5,240.5 297.5,240.5C 297.185,238.774 297.019,237.107 297,235.5C 325.702,206.965 354.202,178.299 382.5,149.5 Z"/></g>
<g><path style="opacity:1" fill="#5b759f" d="M 255.5,240.5 C 255.5,250.5 255.5,260.5 255.5,270.5C 250.898,270.616 247.065,268.949 244,265.5C 237.088,251.998 240.921,243.665 255.5,240.5 Z"/></g>
<g><path style="opacity:1" fill="#3e5690" d="M 255.5,240.5 C 262.349,241.001 267.183,244.334 270,250.5C 271.731,262.066 266.898,268.733 255.5,270.5C 255.5,260.5 255.5,250.5 255.5,240.5 Z"/></g>
<g><path style="opacity:1" fill="#fe9966" d="M 90.5,270.5 C 131.5,270.5 172.5,270.5 213.5,270.5C 213.815,272.226 213.981,273.893 214,275.5C 185.333,304.167 156.667,332.833 128,361.5C 106.439,335.005 93.9393,304.671 90.5,270.5 Z"/></g>
<g><path style="opacity:1" fill="#01c77c" d="M 297.5,270.5 C 338.5,270.5 379.5,270.5 420.5,270.5C 417.055,304.693 404.555,335.026 383,361.5C 354.333,332.833 325.667,304.167 297,275.5C 296.616,273.803 296.782,272.137 297.5,270.5 Z"/></g>
<g><path style="opacity:1" fill="#28d9f7" d="M 235.5,296.5 C 236.93,296.421 238.264,296.754 239.5,297.5C 240.5,338.495 240.833,379.495 240.5,420.5C 206.2,417.342 175.866,404.842 149.5,383C 178.368,354.299 207.035,325.465 235.5,296.5 Z"/></g>
<g><path style="opacity:1" fill="#fe6666" d="M 273.5,296.5 C 303.249,324.748 332.583,353.581 361.5,383C 335.298,404.353 305.298,416.853 271.5,420.5C 270.5,379.505 270.167,338.505 270.5,297.5C 271.791,297.737 272.791,297.404 273.5,296.5 Z"/></g>
</svg>
